<svg width="14" height="14" viewBox="0 0 14 14" fill="none" xmlns="http://www.w3.org/2000/svg">
<path d="M1 4.04133C1 3.81698 1.0442 3.59482 1.13008 3.38756C1.21595 3.18029 1.34182 2.99197 1.5005 2.83336C1.65917 2.67475 1.84754 2.54895 2.05484 2.46316C2.26214 2.37736 2.48431 2.33325 2.70867 2.33333H3.66667V1H7V2.33333H8.33467C9.57199 2.33333 10.7586 2.82486 11.6336 3.69978C12.5085 4.5747 13 5.76134 13 6.99867V11.2933C13 11.5177 12.9558 11.7398 12.8699 11.9471C12.784 12.1544 12.6582 12.3427 12.4995 12.5013C12.3408 12.6599 12.1525 12.7857 11.9452 12.8715C11.7379 12.9573 11.5157 13.0014 11.2913 13.0013H2.70867C2.25572 13.001 1.82142 12.8209 1.50108 12.5007C1.18074 12.1805 1.00053 11.7463 1 11.2933V4.04133Z" stroke="#24CA49" stroke-opacity="0.7" stroke-width="1.2" stroke-miterlimit="1.5" stroke-linecap="round" stroke-linejoin="round"/>
<path d="M7 5C7 5 9 6.99533 9 8.25733C9 9.36133 8.10333 10.2573 7 10.2573C5.896 10.2573 5.008 9.36133 5 8.25733C5.00667 6.99467 7 5 7 5Z" stroke="#24CA49" stroke-opacity="0.7" stroke-width="1.2" stroke-miterlimit="1.5" stroke-linecap="round" stroke-linejoin="round"/>
</svg>
