<svg width="14" height="12" viewBox="0 0 14 12" fill="none" xmlns="http://www.w3.org/2000/svg">
<path d="M12.5865 3.71325L11.7665 4.94658C12.1619 5.7353 12.3555 6.6098 12.3299 7.49173C12.3043 8.37366 12.0603 9.23546 11.6198 9.99992H2.37979C1.80723 9.00665 1.56999 7.85533 1.70322 6.71663C1.83645 5.57793 2.33306 4.51247 3.11944 3.6782C3.90582 2.84394 4.9401 2.28528 6.06895 2.08505C7.1978 1.88482 8.36112 2.05367 9.38646 2.56658L10.6198 1.74658C9.36411 0.941396 7.87467 0.580588 6.38971 0.721876C4.90476 0.863163 3.51009 1.49838 2.42878 2.52593C1.34748 3.55347 0.64203 4.91397 0.425268 6.38979C0.208505 7.86562 0.492956 9.37151 1.23312 10.6666C1.34946 10.8681 1.51652 11.0357 1.71768 11.1526C1.91884 11.2696 2.1471 11.3318 2.37979 11.3333H11.6131C11.8481 11.3342 12.0791 11.273 12.2828 11.1559C12.4865 11.0389 12.6557 10.8701 12.7731 10.6666C13.3874 9.60253 13.6956 8.38943 13.6639 7.16122C13.6321 5.93301 13.2616 4.73746 12.5931 3.70658L12.5865 3.71325ZM6.05979 8.27325C6.18362 8.39722 6.33067 8.49556 6.49254 8.56266C6.6544 8.62976 6.8279 8.6643 7.00312 8.6643C7.17834 8.6643 7.35185 8.62976 7.51371 8.56266C7.67557 8.49556 7.82263 8.39722 7.94646 8.27325L11.7198 2.61325L6.05979 6.38658C5.93582 6.51042 5.83748 6.65747 5.77038 6.81933C5.70328 6.98119 5.66874 7.1547 5.66874 7.32992C5.66874 7.50514 5.70328 7.67864 5.77038 7.8405C5.83748 8.00237 5.93582 8.14942 6.05979 8.27325Z" fill="#24CA49" fill-opacity="0.7"/>
</svg>
