<svg width="14" height="12" viewBox="0 0 14 12" fill="none" xmlns="http://www.w3.org/2000/svg">
<path d="M7.00016 0C7.70741 0 8.38568 0.280951 8.88578 0.781048C9.38588 1.28115 9.66683 1.95942 9.66683 2.66667C9.66683 3.15333 9.54016 3.60667 9.30683 4H11.0002C11.6335 4 12.1668 4.44667 12.3002 5.04C13.6402 10.38 13.6668 10.52 13.6668 10.6667C13.6668 11.0203 13.5264 11.3594 13.2763 11.6095C13.0263 11.8595 12.6871 12 12.3335 12H1.66683C1.31321 12 0.974069 11.8595 0.72402 11.6095C0.473972 11.3594 0.333496 11.0203 0.333496 10.6667C0.333496 10.52 0.360163 10.38 1.70016 5.04C1.8335 4.44667 2.36683 4 3.00016 4H4.6935C4.45518 3.59627 4.33077 3.13548 4.3335 2.66667C4.3335 1.95942 4.61445 1.28115 5.11454 0.781048C5.61464 0.280951 6.29292 0 7.00016 0ZM7.00016 1.33333C6.64654 1.33333 6.3074 1.47381 6.05735 1.72386C5.80731 1.97391 5.66683 2.31304 5.66683 2.66667C5.66683 3.02029 5.80731 3.35943 6.05735 3.60948C6.3074 3.85952 6.64654 4 7.00016 4C7.35379 4 7.69292 3.85952 7.94297 3.60948C8.19302 3.35943 8.3335 3.02029 8.3335 2.66667C8.3335 2.31304 8.19302 1.97391 7.94297 1.72386C7.69292 1.47381 7.35379 1.33333 7.00016 1.33333ZM3.00016 5.33333V10.6667H4.3335V9L5.00016 9.66667V10.6667H6.3335V9.33333L5.00016 8L6.3335 6.66667V5.33333H5.00016V6.33333L4.3335 7V5.33333H3.00016ZM9.00016 5.33333C8.26016 5.33333 7.66683 5.92667 7.66683 6.66667V9.33333C7.66683 10.0733 8.26016 10.6667 9.00016 10.6667H11.0002V7.33333H9.66683V9.33333H9.00016V6.66667H11.0002V5.33333H9.00016Z" fill="#24CA49" fill-opacity="0.7"/>
</svg>
