<svg width="14" height="14" viewBox="0 0 14 14" fill="none" xmlns="http://www.w3.org/2000/svg">
<path d="M12.8669 5.39998V11.2667C12.8669 11.4081 12.8107 11.5438 12.7107 11.6438C12.6107 11.7438 12.475 11.8 12.3336 11.8C12.1921 11.8 12.0565 11.7438 11.9564 11.6438C11.8564 11.5438 11.8002 11.4081 11.8002 11.2667V9.13332C11.8002 8.70897 11.6317 8.302 11.3316 8.00195C11.0315 7.70189 10.6246 7.53332 10.2002 7.53332H8.60023V1.13332C8.60023 0.85042 8.48785 0.579109 8.28781 0.37907C8.08777 0.179031 7.81646 0.0666504 7.53356 0.0666504H1.13356C0.850664 0.0666504 0.579353 0.179031 0.379314 0.37907C0.179275 0.579109 0.0668945 0.85042 0.0668945 1.13332V12.8667C0.0668945 13.1495 0.179275 13.4209 0.379314 13.6209C0.579353 13.8209 0.850664 13.9333 1.13356 13.9333H7.53356C7.81646 13.9333 8.08777 13.8209 8.28781 13.6209C8.48785 13.4209 8.60023 13.1495 8.60023 12.8667V8.59998H10.2002C10.3417 8.59998 10.4773 8.65617 10.5774 8.75619C10.6774 8.85621 10.7336 8.99187 10.7336 9.13332V11.2667C10.7336 11.691 10.9021 12.098 11.2022 12.398C11.5022 12.6981 11.9092 12.8667 12.3336 12.8667C12.7579 12.8667 13.1649 12.6981 13.4649 12.398C13.765 12.098 13.9336 11.691 13.9336 11.2667V4.33332C13.9336 4.05042 13.8212 3.77911 13.6211 3.57907C13.4211 3.37903 13.1498 3.26665 12.8669 3.26665V1.65598C12.8641 1.51639 12.8067 1.38346 12.707 1.28574C12.6072 1.18801 12.4732 1.13329 12.3336 1.13332C12.2593 1.13454 12.1861 1.15097 12.1184 1.18158C12.0507 1.21219 11.99 1.25634 11.94 1.31131C11.89 1.36627 11.8519 1.43089 11.8278 1.50118C11.8038 1.57146 11.7944 1.64593 11.8002 1.71998V4.33332C11.8002 4.54428 11.8628 4.75051 11.98 4.92593C12.0972 5.10134 12.2638 5.23806 12.4587 5.31879C12.6536 5.39952 12.8681 5.42065 13.075 5.37949C13.2819 5.33833 13.472 5.23674 13.6211 5.08756C13.7703 4.93839 13.8719 4.74833 13.9131 4.54141C13.9542 4.3345 13.9331 4.12003 13.8524 3.92512C13.7716 3.73021 13.6349 3.56362 13.4595 3.44642C13.2841 3.32921 13.0779 3.26665 12.8669 3.26665V5.39998ZM7.53356 5.93332C7.53356 6.07477 7.47737 6.21042 7.37735 6.31044C7.27733 6.41046 7.14168 6.46665 7.00023 6.46665H1.66689C1.52545 6.46665 1.38979 6.41046 1.28977 6.31044C1.18975 6.21042 1.13356 6.07477 1.13356 5.93332V2.73332C1.13356 2.59187 1.18975 2.45621 1.28977 2.35619C1.38979 2.25617 1.52545 2.19998 1.66689 2.19998H7.00023C7.14168 2.19998 7.27733 2.25617 7.37735 2.35619C7.47737 2.45621 7.53356 2.59187 7.53356 2.73332V5.93332Z" fill="#24CA49" fill-opacity="0.7"/>
</svg>
