<svg width="248" height="196" viewBox="0 0 248 196" fill="none" xmlns="http://www.w3.org/2000/svg">
<g filter="url(#filter0_i_303_235)">
<path d="M85.8716 80.58C87.4143 80.58 88.749 80.8747 89.8756 81.464C91.0023 82.036 91.9556 82.8853 92.7356 84.012L90.8636 85.806C90.205 84.8007 89.4596 84.0813 88.6276 83.648C87.813 83.1973 86.8423 82.972 85.7156 82.972C84.8836 82.972 84.199 83.0847 83.6616 83.31C83.1243 83.5353 82.7256 83.8387 82.4656 84.22C82.223 84.584 82.1016 85 82.1016 85.468C82.1016 86.0053 82.2836 86.4733 82.6476 86.872C83.029 87.2707 83.731 87.5827 84.7536 87.808L88.2376 88.588C89.9016 88.952 91.0803 89.5067 91.7736 90.252C92.467 90.9973 92.8136 91.942 92.8136 93.086C92.8136 94.1433 92.5276 95.062 91.9556 95.842C91.3836 96.622 90.5863 97.22 89.5636 97.636C88.5583 98.052 87.371 98.26 86.0016 98.26C84.7883 98.26 83.6963 98.104 82.7256 97.792C81.755 97.48 80.9056 97.0553 80.1776 96.518C79.4496 95.9807 78.8516 95.3653 78.3836 94.672L80.3076 92.748C80.6716 93.3547 81.131 93.9007 81.6856 94.386C82.2403 94.854 82.8816 95.218 83.6096 95.478C84.355 95.738 85.1783 95.868 86.0796 95.868C86.877 95.868 87.5616 95.7727 88.1336 95.582C88.723 95.3913 89.165 95.114 89.4596 94.75C89.7716 94.3687 89.9276 93.918 89.9276 93.398C89.9276 92.8953 89.7543 92.4533 89.4076 92.072C89.0783 91.6907 88.4543 91.396 87.5356 91.188L83.7656 90.33C82.7256 90.1047 81.8676 89.784 81.1916 89.368C80.5156 88.952 80.013 88.4493 79.6836 87.86C79.3543 87.2533 79.1896 86.5773 79.1896 85.832C79.1896 84.8613 79.4496 83.986 79.9696 83.206C80.507 82.4087 81.2783 81.776 82.2836 81.308C83.289 80.8227 84.485 80.58 85.8716 80.58ZM112.827 80.58C114.491 80.58 115.93 80.9353 117.143 81.646C118.357 82.3567 119.293 83.3707 119.951 84.688C120.61 86.0053 120.939 87.5827 120.939 89.42C120.939 91.2573 120.61 92.8347 119.951 94.152C119.293 95.4693 118.357 96.4833 117.143 97.194C115.93 97.9047 114.491 98.26 112.827 98.26C111.181 98.26 109.751 97.9047 108.537 97.194C107.324 96.4833 106.388 95.4693 105.729 94.152C105.071 92.8347 104.741 91.2573 104.741 89.42C104.741 87.5827 105.071 86.0053 105.729 84.688C106.388 83.3707 107.324 82.3567 108.537 81.646C109.751 80.9353 111.181 80.58 112.827 80.58ZM112.827 82.998C111.753 82.998 110.825 83.2493 110.045 83.752C109.283 84.2547 108.693 84.9827 108.277 85.936C107.861 86.8893 107.653 88.0507 107.653 89.42C107.653 90.772 107.861 91.9333 108.277 92.904C108.693 93.8573 109.283 94.5853 110.045 95.088C110.825 95.5907 111.753 95.842 112.827 95.842C113.919 95.842 114.847 95.5907 115.609 95.088C116.389 94.5853 116.987 93.8573 117.403 92.904C117.819 91.9333 118.027 90.772 118.027 89.42C118.027 88.0507 117.819 86.8893 117.403 85.936C116.987 84.9827 116.389 84.2547 115.609 83.752C114.847 83.2493 113.919 82.998 112.827 82.998ZM147.752 80.84V91.422C147.752 93.6927 147.154 95.4 145.958 96.544C144.762 97.688 143.02 98.26 140.732 98.26C138.479 98.26 136.746 97.688 135.532 96.544C134.336 95.4 133.738 93.6927 133.738 91.422V80.84H136.52V91.084C136.52 92.696 136.867 93.892 137.56 94.672C138.254 95.452 139.311 95.842 140.732 95.842C142.171 95.842 143.237 95.452 143.93 94.672C144.624 93.892 144.97 92.696 144.97 91.084V80.84H147.752ZM164.292 95.608H173.756V98H161.51V80.84H164.292V95.608Z" fill="#666592" fill-opacity="0.4"/>
</g>
<g filter="url(#filter1_i_303_235)">
<path d="M41.2088 0.232346C38.4337 0.827011 35.2621 2.51189 34.6179 3.70122C33.7259 5.3861 35.4603 7.41787 43.1414 13.9592C47.0563 17.2794 51.3676 21.1447 52.7056 22.6313C54.6382 24.7622 55.9762 25.7038 58.9 26.8931C68.4146 30.7584 87.4439 35.3671 95.8683 35.7635C102.063 36.1104 105.978 35.1688 106.87 33.1866C107.662 31.5017 107.613 26.8931 106.87 25.902C104.937 23.5729 96.4134 19.4103 82.4388 13.8601C76.4426 11.531 67.9686 8.11164 63.6078 6.32765C49.9305 0.727901 48.7907 0.331459 46.0156 0.083683C44.529 -0.0649834 42.3485 -0.0154305 41.2088 0.232346Z" fill="#666592" fill-opacity="0.4"/>
</g>
<g filter="url(#filter2_i_303_235)">
<path d="M157.664 19.8562C155.583 20.7978 158.159 23.5233 166.287 29.024C174.959 34.8715 178.378 37.8944 193.195 52.6123L205.386 64.6542L207.467 63.8118C209.499 63.0189 209.697 63.0189 211.134 63.9109C212.621 64.7533 212.72 64.7533 213.364 63.9109C215.297 61.2349 211.977 45.8728 207.764 37.8944C204.94 32.5424 199.29 24.0189 198.299 23.672C196.862 23.1269 196.515 24.3162 197.308 27.6364C197.705 29.4204 197.853 31.1053 197.705 31.4026C197.457 31.7991 196.367 31.5017 194.137 30.5106C192.353 29.7177 185.018 27.0418 177.833 24.5144C168.071 21.1942 163.858 19.9553 161.48 19.8067C159.696 19.658 157.961 19.7076 157.664 19.8562Z" fill="#666592" fill-opacity="0.4"/>
</g>
<g filter="url(#filter3_i_303_235)">
<path d="M129.517 29.7177C121.984 31.353 116.038 34.6732 110.438 40.3226C104.244 46.5665 100.973 53.6034 100.18 62.226C99.7836 66.7355 100.18 68.024 102.261 68.916C103.203 69.3124 104.69 69.6097 105.631 69.6097C107.167 69.6097 117.723 66.3391 119.655 65.2489C120.448 64.8029 120.448 64.7533 119.556 64.2578C119.061 64.01 117.277 63.6135 115.641 63.4153C111.578 62.9198 109.942 62.0278 109.942 60.2933C109.942 55.5856 114.799 44.6339 118.862 40.2234C122.282 36.4572 124.512 35.6644 131.251 35.7139C137.644 35.7139 141.707 36.8041 149.339 40.3721C165.593 48.0532 172.927 51.2743 173.968 51.2743C175.405 51.2743 176.347 50.4318 176.347 49.1434C176.347 46.6656 169.508 39.5792 164.453 36.8041C159.993 34.3264 150.33 30.5602 146.266 29.7177C142.104 28.8257 133.531 28.8257 129.517 29.7177Z" fill="#666592" fill-opacity="0.4"/>
</g>
<g filter="url(#filter4_i_303_235)">
<path d="M33.2308 43.0481C30.8521 43.841 29.1673 45.1294 29.1673 46.1701C29.1673 47.5081 31.4964 49.1434 34.8661 50.184C45.9665 53.5538 54.6883 64.902 58.0085 80.2641C59.0491 85.071 58.7518 96.32 57.4633 101.077C53.9945 114.011 45.9665 122.683 36.105 124.071C28.3744 125.112 21.4862 122.485 15.044 115.993C6.91694 107.767 2.75429 96.9147 2.70473 83.733C2.70473 76.9935 3.64628 71.9884 5.97538 66.4382C7.66026 62.3746 7.80893 61.6313 7.0656 61.334C5.57894 60.8384 1.4163 71.7902 0.474745 78.6783C-1.25969 91.3645 1.81274 104.844 8.80004 115.151C14.6476 123.774 23.6666 130.612 31.9919 132.743C35.9563 133.784 43.5383 133.784 47.0567 132.743C58.8013 129.274 67.87 118.57 72.5282 102.564C74.6095 95.2794 75.105 89.3327 74.1139 81.8994C72.5777 70.3035 69.8026 63.118 64.0046 55.4865C60.0402 50.2832 56.7529 46.676 51.5 44C48.3797 42.5148 47.3475 42.0991 41.5 42C37.4365 41.9009 34.6679 42.6021 33.2308 43.0481Z" fill="#666592" fill-opacity="0.4"/>
</g>
<g filter="url(#filter5_i_303_235)">
<path d="M151.866 53.1079C150.925 54.0494 152.857 58.6581 156.376 64.01C160.043 69.6098 168.566 78.0342 172.58 80.1155C175.207 81.4535 185.564 82.0977 194.979 81.5031C202.016 81.0571 205.584 80.2146 205.584 78.9262C205.584 77.9846 191.411 64.2083 188.19 62.0278C184.622 59.5996 182.739 59.2032 178.031 59.8474C174.563 60.3429 173.869 60.2934 169.111 59.1041C164.602 57.9147 159.993 56.2794 153.997 53.6034C153.006 53.1574 152.064 52.9592 151.866 53.1079Z" fill="#666592" fill-opacity="0.4"/>
</g>
<g filter="url(#filter6_i_303_235)">
<path d="M225.555 63.3162C225.357 63.6135 225.06 65.0507 224.861 66.4878C224.564 68.47 224.068 69.6097 222.681 71.1955C220.6 73.6237 218.518 79.6695 219.311 80.9084C220.154 82.2463 220.798 82.0977 222.929 80.2146C226.992 76.5475 229.371 69.362 227.934 65.0011C227.29 63.1676 226.199 62.3251 225.555 63.3162Z" fill="#666592" fill-opacity="0.4"/>
</g>
<g filter="url(#filter7_i_303_235)">
<path d="M207.913 99.0456C205.435 99.9376 204.593 100.73 204.593 102.019C204.593 103.803 205.584 104.645 210.341 106.974C215.842 109.65 219.856 112.921 223.523 117.728C241.611 141.366 235.813 179.969 212.918 188.443C196.862 194.39 179.072 181.654 172.679 159.701C169.012 146.916 169.954 132.347 175.157 122.039C176.594 119.215 176.743 117.728 175.554 118.719C174.364 119.71 172.63 123.427 170.995 128.581C165.742 145.132 168.913 164.161 179.221 177.888C188.488 190.277 200.084 196.521 212.472 195.827C218.32 195.53 222.136 194.241 227.042 191.07C237.746 184.033 245.674 169.563 247.706 153.11C248.896 143.992 246.368 129.77 242.057 120.949C238.885 114.507 232.939 107.173 228.181 103.852C222.185 99.7394 219.46 98.6492 214.256 98.5005C211.283 98.4014 209.152 98.5501 207.913 99.0456Z" fill="#666592" fill-opacity="0.4"/>
</g>
<g filter="url(#filter8_i_303_235)">
<path d="M165.097 106.776C156.722 111.137 153.055 113.466 149.24 116.886C145.721 120.057 144.581 122.684 144.284 127.986C144.086 131.752 144.284 133.14 145.771 138.888L147.505 145.479L146.266 145.975C144.284 146.718 137.148 146.47 131.053 145.429C114.105 142.555 92.3501 135.171 81.0515 128.432C74.5102 124.567 71.5865 121.048 73.3704 119.264C74.0642 118.57 76.8393 118.471 79.1189 119.116C80.8037 119.611 81.0515 119.363 80.11 118.025C79.3171 116.985 74.4111 115.746 72.7758 116.192C72.082 116.34 71.2396 117.133 70.8431 117.877C70.298 119.066 70.298 119.512 71.0909 121.246C73.0236 125.607 80.8533 131.257 91.4086 135.915C101.221 140.276 120.944 147.213 135.513 151.376C142.104 153.309 148.744 155.291 150.33 155.836C154.195 157.174 155.137 157.124 154.79 155.687C154.641 155.093 154.096 152.714 153.6 150.385C153.055 148.056 151.816 143.299 150.875 139.731C148.744 132.099 148.546 127.887 150.082 122.981C150.875 120.404 151.519 119.363 153.254 117.827C156.326 115.102 163.363 111.088 169.26 108.709C172.085 107.569 174.364 106.33 174.364 105.983C174.364 104.992 173.423 102.812 173.026 102.812C172.778 102.812 169.21 104.596 165.097 106.776Z" fill="#666592" fill-opacity="0.4"/>
</g>
<defs>
<filter id="filter0_i_303_235" x="78.3838" y="80.58" width="95.3721" height="21.68" filterUnits="userSpaceOnUse" color-interpolation-filters="sRGB">
<feFlood flood-opacity="0" result="BackgroundImageFix"/>
<feBlend mode="normal" in="SourceGraphic" in2="BackgroundImageFix" result="shape"/>
<feColorMatrix in="SourceAlpha" type="matrix" values="0 0 0 0 0 0 0 0 0 0 0 0 0 0 0 0 0 0 127 0" result="hardAlpha"/>
<feOffset dy="4"/>
<feGaussianBlur stdDeviation="2"/>
<feComposite in2="hardAlpha" operator="arithmetic" k2="-1" k3="1"/>
<feColorMatrix type="matrix" values="0 0 0 0 0 0 0 0 0 0 0 0 0 0 0 0 0 0 0.25 0"/>
<feBlend mode="normal" in2="shape" result="effect1_innerShadow_303_235"/>
</filter>
<filter id="filter1_i_303_235" x="34.4048" y="6.10352e-05" width="73.041" height="39.8341" filterUnits="userSpaceOnUse" color-interpolation-filters="sRGB">
<feFlood flood-opacity="0" result="BackgroundImageFix"/>
<feBlend mode="normal" in="SourceGraphic" in2="BackgroundImageFix" result="shape"/>
<feColorMatrix in="SourceAlpha" type="matrix" values="0 0 0 0 0 0 0 0 0 0 0 0 0 0 0 0 0 0 127 0" result="hardAlpha"/>
<feOffset dy="4"/>
<feGaussianBlur stdDeviation="2"/>
<feComposite in2="hardAlpha" operator="arithmetic" k2="-1" k3="1"/>
<feColorMatrix type="matrix" values="0 0 0 0 0 0 0 0 0 0 0 0 0 0 0 0 0 0 0.25 0"/>
<feBlend mode="normal" in2="shape" result="effect1_innerShadow_303_235"/>
</filter>
<filter id="filter2_i_303_235" x="156.976" y="19.7169" width="56.9521" height="48.9373" filterUnits="userSpaceOnUse" color-interpolation-filters="sRGB">
<feFlood flood-opacity="0" result="BackgroundImageFix"/>
<feBlend mode="normal" in="SourceGraphic" in2="BackgroundImageFix" result="shape"/>
<feColorMatrix in="SourceAlpha" type="matrix" values="0 0 0 0 0 0 0 0 0 0 0 0 0 0 0 0 0 0 127 0" result="hardAlpha"/>
<feOffset dy="4"/>
<feGaussianBlur stdDeviation="2"/>
<feComposite in2="hardAlpha" operator="arithmetic" k2="-1" k3="1"/>
<feColorMatrix type="matrix" values="0 0 0 0 0 0 0 0 0 0 0 0 0 0 0 0 0 0 0.25 0"/>
<feBlend mode="normal" in2="shape" result="effect1_innerShadow_303_235"/>
</filter>
<filter id="filter3_i_303_235" x="100.043" y="29.0487" width="76.3037" height="44.561" filterUnits="userSpaceOnUse" color-interpolation-filters="sRGB">
<feFlood flood-opacity="0" result="BackgroundImageFix"/>
<feBlend mode="normal" in="SourceGraphic" in2="BackgroundImageFix" result="shape"/>
<feColorMatrix in="SourceAlpha" type="matrix" values="0 0 0 0 0 0 0 0 0 0 0 0 0 0 0 0 0 0 127 0" result="hardAlpha"/>
<feOffset dy="4"/>
<feGaussianBlur stdDeviation="2"/>
<feComposite in2="hardAlpha" operator="arithmetic" k2="-1" k3="1"/>
<feColorMatrix type="matrix" values="0 0 0 0 0 0 0 0 0 0 0 0 0 0 0 0 0 0 0.25 0"/>
<feBlend mode="normal" in2="shape" result="effect1_innerShadow_303_235"/>
</filter>
<filter id="filter4_i_303_235" x="0" y="41.9905" width="74.606" height="95.5331" filterUnits="userSpaceOnUse" color-interpolation-filters="sRGB">
<feFlood flood-opacity="0" result="BackgroundImageFix"/>
<feBlend mode="normal" in="SourceGraphic" in2="BackgroundImageFix" result="shape"/>
<feColorMatrix in="SourceAlpha" type="matrix" values="0 0 0 0 0 0 0 0 0 0 0 0 0 0 0 0 0 0 127 0" result="hardAlpha"/>
<feOffset dy="4"/>
<feGaussianBlur stdDeviation="2"/>
<feComposite in2="hardAlpha" operator="arithmetic" k2="-1" k3="1"/>
<feColorMatrix type="matrix" values="0 0 0 0 0 0 0 0 0 0 0 0 0 0 0 0 0 0 0.25 0"/>
<feBlend mode="normal" in2="shape" result="effect1_innerShadow_303_235"/>
</filter>
<filter id="filter5_i_303_235" x="151.629" y="53.0591" width="53.9551" height="32.6663" filterUnits="userSpaceOnUse" color-interpolation-filters="sRGB">
<feFlood flood-opacity="0" result="BackgroundImageFix"/>
<feBlend mode="normal" in="SourceGraphic" in2="BackgroundImageFix" result="shape"/>
<feColorMatrix in="SourceAlpha" type="matrix" values="0 0 0 0 0 0 0 0 0 0 0 0 0 0 0 0 0 0 127 0" result="hardAlpha"/>
<feOffset dy="4"/>
<feGaussianBlur stdDeviation="2"/>
<feComposite in2="hardAlpha" operator="arithmetic" k2="-1" k3="1"/>
<feColorMatrix type="matrix" values="0 0 0 0 0 0 0 0 0 0 0 0 0 0 0 0 0 0 0.25 0"/>
<feBlend mode="normal" in2="shape" result="effect1_innerShadow_303_235"/>
</filter>
<filter id="filter6_i_303_235" x="219.139" y="62.896" width="9.21631" height="22.8941" filterUnits="userSpaceOnUse" color-interpolation-filters="sRGB">
<feFlood flood-opacity="0" result="BackgroundImageFix"/>
<feBlend mode="normal" in="SourceGraphic" in2="BackgroundImageFix" result="shape"/>
<feColorMatrix in="SourceAlpha" type="matrix" values="0 0 0 0 0 0 0 0 0 0 0 0 0 0 0 0 0 0 127 0" result="hardAlpha"/>
<feOffset dy="4"/>
<feGaussianBlur stdDeviation="2"/>
<feComposite in2="hardAlpha" operator="arithmetic" k2="-1" k3="1"/>
<feColorMatrix type="matrix" values="0 0 0 0 0 0 0 0 0 0 0 0 0 0 0 0 0 0 0.25 0"/>
<feBlend mode="normal" in2="shape" result="effect1_innerShadow_303_235"/>
</filter>
<filter id="filter7_i_303_235" x="168.498" y="98.4715" width="79.5024" height="101.408" filterUnits="userSpaceOnUse" color-interpolation-filters="sRGB">
<feFlood flood-opacity="0" result="BackgroundImageFix"/>
<feBlend mode="normal" in="SourceGraphic" in2="BackgroundImageFix" result="shape"/>
<feColorMatrix in="SourceAlpha" type="matrix" values="0 0 0 0 0 0 0 0 0 0 0 0 0 0 0 0 0 0 127 0" result="hardAlpha"/>
<feOffset dy="4"/>
<feGaussianBlur stdDeviation="2"/>
<feComposite in2="hardAlpha" operator="arithmetic" k2="-1" k3="1"/>
<feColorMatrix type="matrix" values="0 0 0 0 0 0 0 0 0 0 0 0 0 0 0 0 0 0 0.25 0"/>
<feBlend mode="normal" in2="shape" result="effect1_innerShadow_303_235"/>
</filter>
<filter id="filter8_i_303_235" x="70.4609" y="102.812" width="103.903" height="57.9918" filterUnits="userSpaceOnUse" color-interpolation-filters="sRGB">
<feFlood flood-opacity="0" result="BackgroundImageFix"/>
<feBlend mode="normal" in="SourceGraphic" in2="BackgroundImageFix" result="shape"/>
<feColorMatrix in="SourceAlpha" type="matrix" values="0 0 0 0 0 0 0 0 0 0 0 0 0 0 0 0 0 0 127 0" result="hardAlpha"/>
<feOffset dy="4"/>
<feGaussianBlur stdDeviation="2"/>
<feComposite in2="hardAlpha" operator="arithmetic" k2="-1" k3="1"/>
<feColorMatrix type="matrix" values="0 0 0 0 0 0 0 0 0 0 0 0 0 0 0 0 0 0 0.25 0"/>
<feBlend mode="normal" in2="shape" result="effect1_innerShadow_303_235"/>
</filter>
</defs>
</svg>
