<svg width="4" height="12" viewBox="0 0 4 12" fill="none" xmlns="http://www.w3.org/2000/svg">
<path d="M0.416667 9.94287H0.833333V6.55713H0.416667C0.186542 6.55713 0 6.34727 0 6.08838V4.96875C0 4.70986 0.186542 4.5 0.416667 4.5H2.75C2.98013 4.5 3.16667 4.70986 3.16667 4.96875V9.94287H3.58333C3.81346 9.94287 4 10.1527 4 10.4116V11.5312C4 11.7901 3.81346 12 3.58333 12H0.416667C0.186542 12 0 11.7901 0 11.5312V10.4116C0 10.1527 0.186542 9.94287 0.416667 9.94287ZM2 0C1.17156 0 0.5 0.755508 0.5 1.6875C0.5 2.61949 1.17156 3.375 2 3.375C2.82844 3.375 3.5 2.61949 3.5 1.6875C3.5 0.755508 2.82842 0 2 0Z" fill="#24CA49" fill-opacity="0.5"/>
</svg>
