<svg width="18" height="20" viewBox="0 0 18 20" fill="none" xmlns="http://www.w3.org/2000/svg">
<path d="M9 8.75C8.00544 8.75 7.05161 8.35491 6.34835 7.65165C5.64509 6.94839 5.25 5.99456 5.25 5C5.25 4.00544 5.64509 3.05161 6.34835 2.34835C7.05161 1.64509 8.00544 1.25 9 1.25C9.99456 1.25 10.9484 1.64509 11.6517 2.34835C12.3549 3.05161 12.75 4.00544 12.75 5C12.75 5.99456 12.3549 6.94839 11.6517 7.65165C10.9484 8.35491 9.99456 8.75 9 8.75Z" stroke="#24CA49" stroke-opacity="0.5" stroke-width="2" stroke-linecap="round"/>
<path d="M1.5 18.75V17.5C1.5 16.1739 2.02678 14.9021 2.96447 13.9645C3.90215 13.0268 5.17392 12.5 6.5 12.5H11.5C12.8261 12.5 14.0979 13.0268 15.0355 13.9645C15.9732 14.9021 16.5 16.1739 16.5 17.5V18.75" stroke="#24CA49" stroke-opacity="0.5" stroke-width="2" stroke-linecap="round"/>
</svg>
