<svg width="57" height="45" viewBox="0 0 57 45" fill="none" xmlns="http://www.w3.org/2000/svg">
<g filter="url(#filter0_i_303_289)">
<path d="M20.076 18.6502C20.3727 18.6502 20.6294 18.7069 20.846 18.8202C21.0627 18.9302 21.246 19.0936 21.396 19.3102L21.036 19.6552C20.9094 19.4619 20.766 19.3236 20.606 19.2402C20.4494 19.1536 20.2627 19.1102 20.046 19.1102C19.886 19.1102 19.7544 19.1319 19.651 19.1752C19.5477 19.2186 19.471 19.2769 19.421 19.3502C19.3744 19.4202 19.351 19.5002 19.351 19.5902C19.351 19.6936 19.386 19.7836 19.456 19.8602C19.5294 19.9369 19.6644 19.9969 19.861 20.0402L20.531 20.1902C20.851 20.2602 21.0777 20.3669 21.211 20.5102C21.3444 20.6536 21.411 20.8352 21.411 21.0552C21.411 21.2586 21.356 21.4352 21.246 21.5852C21.136 21.7352 20.9827 21.8502 20.786 21.9302C20.5927 22.0102 20.3644 22.0502 20.101 22.0502C19.8677 22.0502 19.6577 22.0202 19.471 21.9602C19.2844 21.9002 19.121 21.8186 18.981 21.7152C18.841 21.6119 18.726 21.4936 18.636 21.3602L19.006 20.9902C19.076 21.1069 19.1644 21.2119 19.271 21.3052C19.3777 21.3952 19.501 21.4652 19.641 21.5152C19.7844 21.5652 19.9427 21.5902 20.116 21.5902C20.2694 21.5902 20.401 21.5719 20.511 21.5352C20.6244 21.4986 20.7094 21.4452 20.766 21.3752C20.826 21.3019 20.856 21.2152 20.856 21.1152C20.856 21.0186 20.8227 20.9336 20.756 20.8602C20.6927 20.7869 20.5727 20.7302 20.396 20.6902L19.671 20.5252C19.471 20.4819 19.306 20.4202 19.176 20.3402C19.046 20.2602 18.9494 20.1636 18.886 20.0502C18.8227 19.9336 18.791 19.8036 18.791 19.6602C18.791 19.4736 18.841 19.3052 18.941 19.1552C19.0444 19.0019 19.1927 18.8802 19.386 18.7902C19.5794 18.6969 19.8094 18.6502 20.076 18.6502ZM26.029 18.6502C26.349 18.6502 26.6257 18.7186 26.859 18.8552C27.0924 18.9919 27.2724 19.1869 27.399 19.4402C27.5257 19.6936 27.589 19.9969 27.589 20.3502C27.589 20.7036 27.5257 21.0069 27.399 21.2602C27.2724 21.5136 27.0924 21.7086 26.859 21.8452C26.6257 21.9819 26.349 22.0502 26.029 22.0502C25.7124 22.0502 25.4374 21.9819 25.204 21.8452C24.9707 21.7086 24.7907 21.5136 24.664 21.2602C24.5374 21.0069 24.474 20.7036 24.474 20.3502C24.474 19.9969 24.5374 19.6936 24.664 19.4402C24.7907 19.1869 24.9707 18.9919 25.204 18.8552C25.4374 18.7186 25.7124 18.6502 26.029 18.6502ZM26.029 19.1152C25.8224 19.1152 25.644 19.1636 25.494 19.2602C25.3474 19.3569 25.234 19.4969 25.154 19.6802C25.074 19.8636 25.034 20.0869 25.034 20.3502C25.034 20.6102 25.074 20.8336 25.154 21.0202C25.234 21.2036 25.3474 21.3436 25.494 21.4402C25.644 21.5369 25.8224 21.5852 26.029 21.5852C26.239 21.5852 26.4174 21.5369 26.564 21.4402C26.714 21.3436 26.829 21.2036 26.909 21.0202C26.989 20.8336 27.029 20.6102 27.029 20.3502C27.029 20.0869 26.989 19.8636 26.909 19.6802C26.829 19.4969 26.714 19.3569 26.564 19.2602C26.4174 19.1636 26.239 19.1152 26.029 19.1152ZM33.5146 18.7002V20.7352C33.5146 21.1719 33.3996 21.5002 33.1696 21.7202C32.9396 21.9402 32.6046 22.0502 32.1646 22.0502C31.7313 22.0502 31.3979 21.9402 31.1646 21.7202C30.9346 21.5002 30.8196 21.1719 30.8196 20.7352V18.7002H31.3546V20.6702C31.3546 20.9802 31.4213 21.2102 31.5546 21.3602C31.6879 21.5102 31.8913 21.5852 32.1646 21.5852C32.4413 21.5852 32.6463 21.5102 32.7796 21.3602C32.9129 21.2102 32.9796 20.9802 32.9796 20.6702V18.7002H33.5146ZM37.4645 21.5402H39.2845V22.0002H36.9295V18.7002H37.4645V21.5402Z" fill="#666592" fill-opacity="0.4"/>
</g>
<g filter="url(#filter1_i_303_289)">
<path d="M9.4674 0.0533113C8.82986 0.189926 8.10126 0.576999 7.95326 0.850227C7.74834 1.2373 8.14679 1.70407 9.91139 3.20682C10.8108 3.96958 11.8012 4.85757 12.1086 5.19911C12.5526 5.68864 12.86 5.90495 13.5317 6.17818C15.7175 7.06617 20.0891 8.12493 22.0245 8.21601C23.4476 8.2957 24.3469 8.07939 24.5519 7.62401C24.734 7.23694 24.7226 6.17818 24.5519 5.95049C24.1079 5.41542 22.1497 4.45912 18.9393 3.18405C17.5618 2.64898 15.615 1.86345 14.6132 1.45361C11.4711 0.167156 11.2092 0.0760803 10.5717 0.0191584C10.2302 -0.0149956 9.72924 -0.00361061 9.4674 0.0533113Z" fill="#666592" fill-opacity="0.4"/>
</g>
<g filter="url(#filter2_i_303_289)">
<path d="M36.2205 4.56167C35.7424 4.77798 36.3344 5.40413 38.2014 6.66781C40.1937 8.01118 40.9792 8.70564 44.3832 12.0868L47.1838 14.8533L47.6619 14.6597C48.1287 14.4776 48.1743 14.4776 48.5044 14.6825C48.8459 14.876 48.8687 14.876 49.0167 14.6825C49.4607 14.0677 48.6979 10.5385 47.7303 8.70564C47.0813 7.47611 45.7835 5.51797 45.5558 5.43828C45.2257 5.31305 45.146 5.58628 45.3281 6.34904C45.4192 6.75888 45.4534 7.14596 45.4192 7.21426C45.3623 7.30534 45.1118 7.23703 44.5995 7.00934C44.1897 6.82719 42.5048 6.21243 40.854 5.63182C38.6113 4.86906 37.6436 4.58444 37.0971 4.55029C36.6873 4.51614 36.2888 4.52752 36.2205 4.56167Z" fill="#666592" fill-opacity="0.4"/>
</g>
<g filter="url(#filter3_i_303_289)">
<path d="M29.754 6.82717C28.0236 7.20286 26.6574 7.96562 25.371 9.26345C23.9479 10.6979 23.1965 12.3145 23.0144 14.2954C22.9233 15.3314 23.0144 15.6274 23.4925 15.8323C23.7088 15.9234 24.0504 15.9917 24.2667 15.9917C24.6196 15.9917 27.0445 15.2403 27.4885 14.9899C27.6707 14.8874 27.6707 14.876 27.4657 14.7622C27.3519 14.7052 26.942 14.6142 26.5664 14.5686C25.6328 14.4548 25.2571 14.2499 25.2571 13.8514C25.2571 12.7699 26.3728 10.2539 27.3064 9.24068C28.0919 8.37546 28.6042 8.19331 30.1525 8.20469C31.6211 8.20469 32.5546 8.45515 34.3078 9.27484C38.0419 11.0394 39.7269 11.7794 39.9659 11.7794C40.2961 11.7794 40.5124 11.5859 40.5124 11.2899C40.5124 10.7207 38.9413 9.09269 37.7801 8.45515C36.7555 7.88593 34.5355 7.02071 33.602 6.82717C32.6457 6.62225 30.6762 6.62225 29.754 6.82717Z" fill="#666592" fill-opacity="0.4"/>
</g>
<g filter="url(#filter4_i_303_289)">
<path d="M7.63423 9.8896C7.08777 10.0718 6.7007 10.3677 6.7007 10.6068C6.7007 10.9142 7.23577 11.2899 8.00991 11.529C10.56 12.3031 12.5637 14.9102 13.3265 18.4394C13.5656 19.5437 13.4972 22.1279 13.2013 23.2209C12.4043 26.1922 10.56 28.1845 8.29453 28.5033C6.51854 28.7423 4.9361 28.139 3.45611 26.6476C1.58905 24.7578 0.632752 22.2646 0.621368 19.2363C0.621368 17.688 0.837673 16.5382 1.37275 15.2631C1.75982 14.3296 1.79397 14.1588 1.6232 14.0905C1.28167 13.9766 0.32537 16.4926 0.109065 18.0751C-0.289393 20.9895 0.416446 24.0861 2.02166 26.4541C3.36503 28.435 5.43702 30.006 7.34961 30.4956C8.26037 30.7346 10.0022 30.7346 10.8105 30.4956C13.5086 29.6986 15.592 27.2396 16.6621 23.5624C17.1403 21.8889 17.2541 20.5227 17.0264 18.8151C16.6735 16.1511 16.036 14.5003 14.704 12.7471C13.7932 11.5517 13.038 10.723 11.8313 10.1083C11.1144 9.76709 10.8773 9.67159 9.53394 9.64882C8.60041 9.62605 7.96438 9.78714 7.63423 9.8896Z" fill="#666592" fill-opacity="0.4"/>
</g>
<g filter="url(#filter5_i_303_289)">
<path d="M34.889 12.2006C34.6727 12.4169 35.1167 13.4757 35.925 14.7052C36.7674 15.9917 38.7256 17.927 39.6477 18.4052C40.2511 18.7126 42.6305 18.8606 44.7935 18.724C46.4101 18.6215 47.2298 18.428 47.2298 18.132C47.2298 17.9157 43.9738 14.7508 43.2338 14.2498C42.4142 13.692 41.9815 13.6009 40.9 13.7489C40.1031 13.8628 39.9437 13.8514 38.8508 13.5782C37.8148 13.3049 36.7561 12.9292 35.3785 12.3145C35.1508 12.212 34.9345 12.1665 34.889 12.2006Z" fill="#666592" fill-opacity="0.4"/>
</g>
<g filter="url(#filter6_i_303_289)">
<path d="M51.8178 14.5458C51.7723 14.6142 51.704 14.9443 51.6584 15.2745C51.5901 15.7298 51.4763 15.9917 51.1575 16.356C50.6794 16.9138 50.2012 18.3027 50.3834 18.5873C50.5769 18.8947 50.7249 18.8606 51.2144 18.428C52.148 17.5855 52.6944 15.9348 52.3643 14.9329C52.2163 14.5117 51.9658 14.3182 51.8178 14.5458Z" fill="#666592" fill-opacity="0.4"/>
</g>
<g filter="url(#filter7_i_303_289)">
<path d="M47.7651 22.7541C47.1958 22.959 47.0023 23.1411 47.0023 23.4371C47.0023 23.847 47.23 24.0405 48.3229 24.5756C49.5866 25.1904 50.5087 25.9417 51.3512 27.046C55.5065 32.4764 54.1745 41.345 48.9149 43.2917C45.2263 44.6579 41.1393 41.7321 39.6707 36.6887C38.8282 33.7515 39.0445 30.4045 40.2399 28.0365C40.5701 27.3876 40.6042 27.046 40.331 27.2737C40.0578 27.5014 39.6593 28.3553 39.2836 29.5392C38.0768 33.3417 38.8055 37.7133 41.1734 40.8668C43.3023 43.713 45.9663 45.1474 48.8124 44.988C50.1558 44.9197 51.0324 44.6237 52.1595 43.8951C54.6185 42.2785 56.4401 38.9542 56.9068 35.1746C57.1801 33.0798 56.5994 29.8125 55.609 27.786C54.8804 26.306 53.5142 24.6211 52.4213 23.8584C51.0438 22.9135 50.4177 22.663 49.2223 22.6288C48.5392 22.6061 48.0497 22.6402 47.7651 22.7541Z" fill="#666592" fill-opacity="0.4"/>
</g>
<g filter="url(#filter8_i_303_289)">
<path d="M37.9282 24.53C36.0042 25.5319 35.1617 26.067 34.2851 26.8525C33.4768 27.5811 33.215 28.1845 33.1467 29.4026C33.1011 30.2678 33.1467 30.5866 33.4882 31.9072L33.8866 33.4213L33.602 33.5352C33.1467 33.706 31.5073 33.649 30.107 33.41C26.2135 32.7497 21.2157 31.0534 18.62 29.5051C17.1173 28.6171 16.4456 27.8088 16.8554 27.3989C17.0148 27.2396 17.6523 27.2168 18.176 27.3648C18.5631 27.4786 18.62 27.4217 18.4037 27.1143C18.2216 26.8753 17.0945 26.5906 16.7188 26.6931C16.5594 26.7273 16.3659 26.9094 16.2748 27.0802C16.1496 27.3534 16.1496 27.4559 16.3317 27.8543C16.7757 28.8562 18.5745 30.154 20.9994 31.2241C23.2535 32.226 27.7846 33.8198 31.1316 34.7761C32.6457 35.2201 34.1713 35.6755 34.5356 35.8007C35.4236 36.1081 35.6399 36.0967 35.5602 35.7666C35.526 35.6299 35.4008 35.0835 35.2869 34.5484C35.1617 34.0133 34.8771 32.9204 34.6608 32.1007C34.1713 30.3475 34.1257 29.3798 34.4786 28.2528C34.6608 27.6608 34.8088 27.4217 35.2073 27.0688C35.9131 26.4426 37.5297 25.5205 38.8844 24.974C39.5334 24.7122 40.0571 24.4276 40.0571 24.3479C40.0571 24.1202 39.8407 23.6193 39.7497 23.6193C39.6927 23.6193 38.8731 24.0291 37.9282 24.53Z" fill="#666592" fill-opacity="0.4"/>
</g>
<defs>
<filter id="filter0_i_303_289" x="18.6362" y="18.6503" width="20.6484" height="7.39996" filterUnits="userSpaceOnUse" color-interpolation-filters="sRGB">
<feFlood flood-opacity="0" result="BackgroundImageFix"/>
<feBlend mode="normal" in="SourceGraphic" in2="BackgroundImageFix" result="shape"/>
<feColorMatrix in="SourceAlpha" type="matrix" values="0 0 0 0 0 0 0 0 0 0 0 0 0 0 0 0 0 0 127 0" result="hardAlpha"/>
<feOffset dy="4"/>
<feGaussianBlur stdDeviation="2"/>
<feComposite in2="hardAlpha" operator="arithmetic" k2="-1" k3="1"/>
<feColorMatrix type="matrix" values="0 0 0 0 0 0 0 0 0 0 0 0 0 0 0 0 0 0 0.25 0"/>
<feBlend mode="normal" in2="shape" result="effect1_innerShadow_303_289"/>
</filter>
<filter id="filter1_i_303_289" x="7.9043" y="-6.10352e-05" width="16.7798" height="12.2323" filterUnits="userSpaceOnUse" color-interpolation-filters="sRGB">
<feFlood flood-opacity="0" result="BackgroundImageFix"/>
<feBlend mode="normal" in="SourceGraphic" in2="BackgroundImageFix" result="shape"/>
<feColorMatrix in="SourceAlpha" type="matrix" values="0 0 0 0 0 0 0 0 0 0 0 0 0 0 0 0 0 0 127 0" result="hardAlpha"/>
<feOffset dy="4"/>
<feGaussianBlur stdDeviation="2"/>
<feComposite in2="hardAlpha" operator="arithmetic" k2="-1" k3="1"/>
<feColorMatrix type="matrix" values="0 0 0 0 0 0 0 0 0 0 0 0 0 0 0 0 0 0 0.25 0"/>
<feBlend mode="normal" in2="shape" result="effect1_innerShadow_303_289"/>
</filter>
<filter id="filter2_i_303_289" x="36.0625" y="4.52966" width="13.084" height="14.3236" filterUnits="userSpaceOnUse" color-interpolation-filters="sRGB">
<feFlood flood-opacity="0" result="BackgroundImageFix"/>
<feBlend mode="normal" in="SourceGraphic" in2="BackgroundImageFix" result="shape"/>
<feColorMatrix in="SourceAlpha" type="matrix" values="0 0 0 0 0 0 0 0 0 0 0 0 0 0 0 0 0 0 127 0" result="hardAlpha"/>
<feOffset dy="4"/>
<feGaussianBlur stdDeviation="2"/>
<feComposite in2="hardAlpha" operator="arithmetic" k2="-1" k3="1"/>
<feColorMatrix type="matrix" values="0 0 0 0 0 0 0 0 0 0 0 0 0 0 0 0 0 0 0.25 0"/>
<feBlend mode="normal" in2="shape" result="effect1_innerShadow_303_289"/>
</filter>
<filter id="filter3_i_303_289" x="22.9829" y="6.67346" width="17.5293" height="13.3182" filterUnits="userSpaceOnUse" color-interpolation-filters="sRGB">
<feFlood flood-opacity="0" result="BackgroundImageFix"/>
<feBlend mode="normal" in="SourceGraphic" in2="BackgroundImageFix" result="shape"/>
<feColorMatrix in="SourceAlpha" type="matrix" values="0 0 0 0 0 0 0 0 0 0 0 0 0 0 0 0 0 0 127 0" result="hardAlpha"/>
<feOffset dy="4"/>
<feGaussianBlur stdDeviation="2"/>
<feComposite in2="hardAlpha" operator="arithmetic" k2="-1" k3="1"/>
<feColorMatrix type="matrix" values="0 0 0 0 0 0 0 0 0 0 0 0 0 0 0 0 0 0 0.25 0"/>
<feBlend mode="normal" in2="shape" result="effect1_innerShadow_303_289"/>
</filter>
<filter id="filter4_i_303_289" x="0" y="9.64667" width="17.1396" height="25.0282" filterUnits="userSpaceOnUse" color-interpolation-filters="sRGB">
<feFlood flood-opacity="0" result="BackgroundImageFix"/>
<feBlend mode="normal" in="SourceGraphic" in2="BackgroundImageFix" result="shape"/>
<feColorMatrix in="SourceAlpha" type="matrix" values="0 0 0 0 0 0 0 0 0 0 0 0 0 0 0 0 0 0 127 0" result="hardAlpha"/>
<feOffset dy="4"/>
<feGaussianBlur stdDeviation="2"/>
<feComposite in2="hardAlpha" operator="arithmetic" k2="-1" k3="1"/>
<feColorMatrix type="matrix" values="0 0 0 0 0 0 0 0 0 0 0 0 0 0 0 0 0 0 0.25 0"/>
<feBlend mode="normal" in2="shape" result="effect1_innerShadow_303_289"/>
</filter>
<filter id="filter5_i_303_289" x="34.8345" y="12.1894" width="12.3955" height="10.5856" filterUnits="userSpaceOnUse" color-interpolation-filters="sRGB">
<feFlood flood-opacity="0" result="BackgroundImageFix"/>
<feBlend mode="normal" in="SourceGraphic" in2="BackgroundImageFix" result="shape"/>
<feColorMatrix in="SourceAlpha" type="matrix" values="0 0 0 0 0 0 0 0 0 0 0 0 0 0 0 0 0 0 127 0" result="hardAlpha"/>
<feOffset dy="4"/>
<feGaussianBlur stdDeviation="2"/>
<feComposite in2="hardAlpha" operator="arithmetic" k2="-1" k3="1"/>
<feColorMatrix type="matrix" values="0 0 0 0 0 0 0 0 0 0 0 0 0 0 0 0 0 0 0.25 0"/>
<feBlend mode="normal" in2="shape" result="effect1_innerShadow_303_289"/>
</filter>
<filter id="filter6_i_303_289" x="50.3438" y="14.4493" width="2.11719" height="8.34058" filterUnits="userSpaceOnUse" color-interpolation-filters="sRGB">
<feFlood flood-opacity="0" result="BackgroundImageFix"/>
<feBlend mode="normal" in="SourceGraphic" in2="BackgroundImageFix" result="shape"/>
<feColorMatrix in="SourceAlpha" type="matrix" values="0 0 0 0 0 0 0 0 0 0 0 0 0 0 0 0 0 0 127 0" result="hardAlpha"/>
<feOffset dy="4"/>
<feGaussianBlur stdDeviation="2"/>
<feComposite in2="hardAlpha" operator="arithmetic" k2="-1" k3="1"/>
<feColorMatrix type="matrix" values="0 0 0 0 0 0 0 0 0 0 0 0 0 0 0 0 0 0 0.25 0"/>
<feBlend mode="normal" in2="shape" result="effect1_innerShadow_303_289"/>
</filter>
<filter id="filter7_i_303_289" x="38.71" y="22.6222" width="18.2642" height="26.3778" filterUnits="userSpaceOnUse" color-interpolation-filters="sRGB">
<feFlood flood-opacity="0" result="BackgroundImageFix"/>
<feBlend mode="normal" in="SourceGraphic" in2="BackgroundImageFix" result="shape"/>
<feColorMatrix in="SourceAlpha" type="matrix" values="0 0 0 0 0 0 0 0 0 0 0 0 0 0 0 0 0 0 127 0" result="hardAlpha"/>
<feOffset dy="4"/>
<feGaussianBlur stdDeviation="2"/>
<feComposite in2="hardAlpha" operator="arithmetic" k2="-1" k3="1"/>
<feColorMatrix type="matrix" values="0 0 0 0 0 0 0 0 0 0 0 0 0 0 0 0 0 0 0.25 0"/>
<feBlend mode="normal" in2="shape" result="effect1_innerShadow_303_289"/>
</filter>
<filter id="filter8_i_303_289" x="16.187" y="23.6193" width="23.8701" height="16.4037" filterUnits="userSpaceOnUse" color-interpolation-filters="sRGB">
<feFlood flood-opacity="0" result="BackgroundImageFix"/>
<feBlend mode="normal" in="SourceGraphic" in2="BackgroundImageFix" result="shape"/>
<feColorMatrix in="SourceAlpha" type="matrix" values="0 0 0 0 0 0 0 0 0 0 0 0 0 0 0 0 0 0 127 0" result="hardAlpha"/>
<feOffset dy="4"/>
<feGaussianBlur stdDeviation="2"/>
<feComposite in2="hardAlpha" operator="arithmetic" k2="-1" k3="1"/>
<feColorMatrix type="matrix" values="0 0 0 0 0 0 0 0 0 0 0 0 0 0 0 0 0 0 0.25 0"/>
<feBlend mode="normal" in2="shape" result="effect1_innerShadow_303_289"/>
</filter>
</defs>
</svg>
