<svg width="23" height="21" viewBox="0 0 23 21" fill="none" xmlns="http://www.w3.org/2000/svg">
<path fill-rule="evenodd" clip-rule="evenodd" d="M15.8032 1.13524C14.0611 0.430542 12.1726 0.164465 10.3036 0.360394C8.43467 0.556322 6.64242 1.20826 5.08437 2.25892C3.52632 3.30958 2.25014 4.72682 1.36798 6.38609C0.485811 8.04537 0.0246563 9.89591 0.0250282 11.7751C0.0250282 12.1133 0.159357 12.4376 0.398466 12.6767C0.637573 12.9158 0.961876 13.0501 1.30003 13.0501C1.63818 13.0501 1.96248 12.9158 2.20159 12.6767C2.4407 12.4376 2.57503 12.1133 2.57503 11.7751C2.57444 10.3134 2.93289 8.87383 3.61889 7.58303C4.3049 6.29224 5.29744 5.1897 6.50931 4.3723C7.72117 3.55491 9.11525 3.04769 10.569 2.89521C12.0228 2.74273 13.4918 2.94966 14.8469 3.49782C15.0031 3.5668 15.1716 3.60369 15.3424 3.6063C15.5132 3.60891 15.6827 3.57719 15.841 3.51302C15.9992 3.44885 16.143 3.35353 16.2637 3.23274C16.3845 3.11194 16.4797 2.96812 16.5438 2.80981C16.6078 2.6515 16.6394 2.48194 16.6367 2.31118C16.634 2.14041 16.597 1.97194 16.5279 1.81575C16.4589 1.65956 16.3591 1.51884 16.2346 1.40194C16.1101 1.28504 15.9634 1.19435 15.8032 1.13524ZM18.306 4.07285C18.0526 4.29659 17.8985 4.61178 17.8775 4.94913C17.8564 5.28648 17.9702 5.61838 18.1938 5.87187C19.6347 7.50037 20.4285 9.60066 20.425 11.7751C20.425 12.1133 20.5594 12.4376 20.7985 12.6767C21.0376 12.9158 21.3619 13.0501 21.7 13.0501C22.0382 13.0501 22.3625 12.9158 22.6016 12.6767C22.8407 12.4376 22.975 12.1133 22.975 11.7751C22.9786 8.97951 21.9581 6.27942 20.1063 4.18505C19.9955 4.05941 19.861 3.95685 19.7105 3.88321C19.5601 3.80958 19.3966 3.76631 19.2294 3.75589C19.0622 3.74548 18.8946 3.7681 18.7361 3.82249C18.5777 3.87687 18.4315 3.96194 18.306 4.07285Z" fill="#24CA49" fill-opacity="0.7"/>
<path fill-rule="evenodd" clip-rule="evenodd" d="M17.8751 11.7751C17.8751 10.0844 17.2034 8.46289 16.0079 7.26734C14.8123 6.0718 13.1908 5.40015 11.5001 5.40015C9.8093 5.40015 8.18779 6.0718 6.99225 7.26734C5.79671 8.46289 5.12506 10.0844 5.12506 11.7751C5.12506 12.1133 5.25939 12.4376 5.4985 12.6767C5.7376 12.9158 6.0619 13.0501 6.40006 13.0501C6.73821 13.0501 7.06251 12.9158 7.30162 12.6767C7.54073 12.4376 7.67506 12.1133 7.67506 11.7751C7.67506 10.7607 8.07805 9.78779 8.79537 9.07046C9.5127 8.35314 10.4856 7.95015 11.5001 7.95015C12.5145 7.95015 13.4874 8.35314 14.2047 9.07046C14.9221 9.78779 15.3251 10.7607 15.3251 11.7751C15.3251 13.9133 15.7649 15.952 16.5593 17.8046C16.6927 18.1154 16.944 18.3604 17.2581 18.4858C17.5722 18.6112 17.9232 18.6068 18.234 18.4734C18.5447 18.34 18.7898 18.0886 18.9152 17.7745C19.0406 17.4604 19.0361 17.1094 18.9027 16.7986C18.2223 15.2114 17.8726 13.5021 17.8751 11.7751ZM6.50078 14.3404C6.33533 14.3667 6.17666 14.4252 6.03385 14.5128C5.89105 14.6004 5.7669 14.7152 5.6685 14.8508C5.5701 14.9864 5.49939 15.14 5.46039 15.303C5.4214 15.4659 5.4149 15.6349 5.44126 15.8003C5.60752 16.8492 5.83961 17.8865 6.13613 18.9062C6.17969 19.0705 6.25567 19.2244 6.35959 19.3589C6.4635 19.4935 6.59327 19.6058 6.74124 19.6895C6.88922 19.7731 7.05242 19.8263 7.22126 19.8459C7.39009 19.8655 7.56115 19.8512 7.72437 19.8038C7.88759 19.7564 8.03967 19.6768 8.17169 19.5697C8.3037 19.4626 8.41297 19.3302 8.49307 19.1803C8.57318 19.0304 8.6225 18.866 8.63814 18.6967C8.65377 18.5275 8.63541 18.3568 8.58413 18.1948C8.32021 17.2857 8.11111 16.3524 7.95938 15.4C7.9061 15.0663 7.72256 14.7674 7.44907 14.569C7.17558 14.3706 6.83451 14.2888 6.50078 14.3417V14.3404Z" fill="#24CA49" fill-opacity="0.7"/>
<path fill-rule="evenodd" clip-rule="evenodd" d="M11.5001 10.5C11.1619 10.5 10.8376 10.6343 10.5985 10.8734C10.3594 11.1125 10.2251 11.4368 10.2251 11.775C10.2251 14.6259 10.8116 17.3442 11.8698 19.8126C11.9359 19.9665 12.0316 20.1058 12.1515 20.2227C12.2714 20.3396 12.4131 20.4317 12.5687 20.4938C12.7242 20.5559 12.8904 20.5868 13.0578 20.5846C13.2253 20.5825 13.3906 20.5474 13.5445 20.4813C13.6984 20.4153 13.8377 20.3196 13.9546 20.1997C14.0715 20.0798 14.1636 19.938 14.2257 19.7825C14.2878 19.627 14.3187 19.4608 14.3165 19.2933C14.3144 19.1259 14.2793 18.9605 14.2133 18.8066C13.2611 16.5848 12.7717 14.1922 12.7751 11.775C12.7751 11.4368 12.6407 11.1125 12.4016 10.8734C12.1625 10.6343 11.8382 10.5 11.5001 10.5Z" fill="#24CA49" fill-opacity="0.7"/>
</svg>
