<svg width="8" height="8" viewBox="0 0 8 8" fill="none" xmlns="http://www.w3.org/2000/svg">
<g clip-path="url(#clip0_304_387)">
<path d="M3.99993 0.266663C1.94129 0.266663 0.266602 1.94135 0.266602 4C0.266602 6.05864 1.94129 7.73333 3.99993 7.73333C6.05858 7.73333 7.73327 6.05864 7.73327 4C7.73327 1.94135 6.05858 0.266663 3.99993 0.266663ZM5.77546 5.93103C5.71479 5.9917 5.63515 6.02224 5.55551 6.02224C5.47587 6.02224 5.39618 5.9917 5.33556 5.93103L3.77999 4.37552C3.72148 4.31735 3.68884 4.23829 3.68884 4.15557V2.13333C3.68884 1.96129 3.82818 1.82224 3.99993 1.82224C4.17169 1.82224 4.31103 1.96129 4.31103 2.13333V4.02677L5.77546 5.49114C5.89708 5.61282 5.89708 5.80941 5.77546 5.93103Z" fill="#FBAB75"/>
</g>
<defs>
<clipPath id="clip0_304_387">
<rect width="7.46667" height="7.46667" fill="white" transform="translate(0.266602 0.266663)"/>
</clipPath>
</defs>
</svg>
