<svg width="8" height="8" viewBox="0 0 8 8" fill="none" xmlns="http://www.w3.org/2000/svg">
<path d="M7.44681 3.48944H7.40426V3.06391C7.40426 2.57029 7.0383 2.16178 6.55319 2.0937V1.57455C6.55319 1.03838 6.11064 0.595825 5.57447 0.595825H1.0383C0.476596 0.595825 0.00851064 1.04689 0 1.6171V6.42561C0 6.96178 0.442553 7.40433 0.978723 7.40433H6.42553C6.9617 7.40433 7.40426 6.96178 7.40426 6.42561V5.95752H7.44681C7.75319 5.95752 8 5.71071 8 5.40433V4.04263C8 3.73625 7.75319 3.48944 7.44681 3.48944ZM0.595745 1.63412C0.595745 1.38731 0.8 1.19157 1.0383 1.19157H5.56596C5.77872 1.19157 5.94894 1.36178 5.94894 1.57455V2.08519H1.0383C0.8 2.08519 0.595745 1.88093 0.595745 1.63412ZM7.40426 5.36178H6C5.65106 5.36178 5.3617 5.07242 5.3617 4.72348C5.3617 4.37455 5.65106 4.08518 6 4.08518H7.40426V5.36178Z" fill="#F98A8A"/>
</svg>
