<svg
      xmlns="http://www.w3.org/2000/svg"
      xmlnsSvgjs="http://svgjs.com/svgjs"
      xmlnsXlink="http://www.w3.org/1999/xlink"
      width="288"
      height="288"
      version="1.1"
    >
      <svg
        xmlns="http://www.w3.org/2000/svg"
        width="288"
        height="288"
        version="1"
        viewBox="0 0 512 512"
      >
        <g fill="#aaa9c9" className="color000 svgShape">
          <path
            d="M2335 4204c-297-42-532-111-788-232-419-198-901-567-1282-982C29 2733 5 2692 5 2555c0-65 5-90 26-135 42-90 309-385 525-582 553-502 1085-794 1643-900 100-20 150-23 361-23s261 3 361 23c711 135 1412 590 2064 1337 104 120 130 175 130 280 0 137-36 197-266 441-638 676-1273 1066-1934 1190-86 16-503 29-580 18zm413-315c472-52 972-299 1481-733 199-169 571-556 571-594 0-49-377-436-631-649-566-471-1157-714-1679-690-544 26-1097 294-1679 813-205 183-491 488-491 525 0 34 282 336 480 514 327 295 642 506 959 645 191 83 423 149 601 169 110 12 277 13 388 0z"
            className="color000 svgShape"
            transform="matrix(.1 0 0 -.1 0 512)"
          ></path>
          <path
            d="M2330 3639c-507-109-870-558-870-1074 1-234 58-426 185-620 49-76 222-250 297-298 384-251 851-251 1233-2 77 50 250 223 300 300 193 296 239 654 124 981-120 345-417 615-773 706-123 31-369 35-496 7zm438-319c413-116 655-530 557-950-9-36-36-105-60-155-80-164-198-281-360-360-125-60-205-79-345-79-139 0-220 19-345 79-312 150-490 495-431 834 60 342 322 598 671 655 64 10 241-3 313-24z"
            className="color000 svgShape"
            transform="matrix(.1 0 0 -.1 0 512)"
          ></path>
        </g>
      </svg>
    </svg>